<mxfile host="app.diagrams.net" modified="2020-10-27T15:36:27.032Z" agent="5.0 (Windows NT 10.0; Win64; x64) AppleWebKit/537.36 (KHTML, like Gecko) Chrome/86.0.4240.111 Safari/537.36" etag="1WhYJHeOSXQNCdnJNjIv" version="13.8.5" type="github">
  <diagram id="C5RBs43oDa-KdzZeNtuy" name="Page-1">
    <mxGraphModel dx="1422" dy="794" grid="1" gridSize="10" guides="1" tooltips="1" connect="1" arrows="1" fold="1" page="1" pageScale="2" pageWidth="827" pageHeight="1169" math="0" shadow="0">
      <root>
        <mxCell id="WIyWlLk6GJQsqaUBKTNV-0" />
        <mxCell id="WIyWlLk6GJQsqaUBKTNV-1" parent="WIyWlLk6GJQsqaUBKTNV-0" />
        <mxCell id="yqw1WrJNjAtdvmXGeGCV-7" style="edgeStyle=orthogonalEdgeStyle;rounded=0;orthogonalLoop=1;jettySize=auto;html=1;entryX=0;entryY=0.5;entryDx=0;entryDy=0;" parent="WIyWlLk6GJQsqaUBKTNV-1" source="yqw1WrJNjAtdvmXGeGCV-1" target="yqw1WrJNjAtdvmXGeGCV-6" edge="1">
          <mxGeometry relative="1" as="geometry" />
        </mxCell>
        <mxCell id="yqw1WrJNjAtdvmXGeGCV-1" value="Check parts availability" style="shape=ext;rounded=1;html=1;whiteSpace=wrap;" parent="WIyWlLk6GJQsqaUBKTNV-1" vertex="1">
          <mxGeometry x="150" y="215" width="100" height="50" as="geometry" />
        </mxCell>
        <mxCell id="yqw1WrJNjAtdvmXGeGCV-2" value="Porcess order" style="swimlane;html=1;horizontal=0;startSize=20;" parent="WIyWlLk6GJQsqaUBKTNV-1" vertex="1">
          <mxGeometry y="145" width="1610" height="440" as="geometry" />
        </mxCell>
        <mxCell id="yqw1WrJNjAtdvmXGeGCV-3" value="Company" style="swimlane;html=1;horizontal=0;swimlaneLine=0;" parent="yqw1WrJNjAtdvmXGeGCV-2" vertex="1">
          <mxGeometry x="20" width="1590" height="220" as="geometry">
            <mxRectangle x="20" width="30" height="80" as="alternateBounds" />
          </mxGeometry>
        </mxCell>
        <mxCell id="yqw1WrJNjAtdvmXGeGCV-4" value="part supplier" style="swimlane;html=1;horizontal=0;swimlaneLine=0;startSize=23;" parent="yqw1WrJNjAtdvmXGeGCV-3" vertex="1">
          <mxGeometry y="220" width="1590" height="220" as="geometry" />
        </mxCell>
        <mxCell id="yqw1WrJNjAtdvmXGeGCV-16" value="Send a delivery schedule" style="shape=ext;rounded=1;html=1;whiteSpace=wrap;" parent="yqw1WrJNjAtdvmXGeGCV-4" vertex="1">
          <mxGeometry x="480" y="75" width="100" height="50" as="geometry" />
        </mxCell>
        <mxCell id="yqw1WrJNjAtdvmXGeGCV-24" value="Send parts" style="shape=ext;rounded=1;html=1;whiteSpace=wrap;" parent="yqw1WrJNjAtdvmXGeGCV-4" vertex="1">
          <mxGeometry x="820" y="75" width="100" height="50" as="geometry" />
        </mxCell>
        <mxCell id="yqw1WrJNjAtdvmXGeGCV-0" value="" style="shape=mxgraph.bpmn.shape;html=1;verticalLabelPosition=bottom;labelBackgroundColor=#ffffff;verticalAlign=top;align=center;perimeter=ellipsePerimeter;outlineConnect=0;outline=standard;symbol=general;" parent="yqw1WrJNjAtdvmXGeGCV-3" vertex="1">
          <mxGeometry x="50" y="75" width="40" height="40" as="geometry" />
        </mxCell>
        <mxCell id="yqw1WrJNjAtdvmXGeGCV-9" style="edgeStyle=orthogonalEdgeStyle;rounded=0;orthogonalLoop=1;jettySize=auto;html=1;entryX=0;entryY=0.5;entryDx=0;entryDy=0;" parent="yqw1WrJNjAtdvmXGeGCV-3" source="yqw1WrJNjAtdvmXGeGCV-6" target="yqw1WrJNjAtdvmXGeGCV-8" edge="1">
          <mxGeometry relative="1" as="geometry" />
        </mxCell>
        <mxCell id="yqw1WrJNjAtdvmXGeGCV-6" value="No parts in stock" style="shape=ext;rounded=1;html=1;whiteSpace=wrap;" parent="yqw1WrJNjAtdvmXGeGCV-3" vertex="1">
          <mxGeometry x="270" y="70" width="100" height="50" as="geometry" />
        </mxCell>
        <mxCell id="yqw1WrJNjAtdvmXGeGCV-22" value="No" style="edgeStyle=orthogonalEdgeStyle;rounded=0;orthogonalLoop=1;jettySize=auto;html=1;exitX=1;exitY=0.5;exitDx=0;exitDy=0;" parent="yqw1WrJNjAtdvmXGeGCV-3" source="yqw1WrJNjAtdvmXGeGCV-8" target="yqw1WrJNjAtdvmXGeGCV-58" edge="1">
          <mxGeometry x="-0.0435" y="10" relative="1" as="geometry">
            <mxPoint x="870" y="135" as="targetPoint" />
            <Array as="points">
              <mxPoint x="1090" y="95" />
            </Array>
            <mxPoint as="offset" />
          </mxGeometry>
        </mxCell>
        <mxCell id="yqw1WrJNjAtdvmXGeGCV-8" value="" style="rhombus;whiteSpace=wrap;html=1;" parent="yqw1WrJNjAtdvmXGeGCV-3" vertex="1">
          <mxGeometry x="410" y="75" width="40" height="40" as="geometry" />
        </mxCell>
        <mxCell id="yqw1WrJNjAtdvmXGeGCV-17" style="edgeStyle=orthogonalEdgeStyle;rounded=0;orthogonalLoop=1;jettySize=auto;html=1;entryX=0.5;entryY=0;entryDx=0;entryDy=0;" parent="yqw1WrJNjAtdvmXGeGCV-3" source="yqw1WrJNjAtdvmXGeGCV-11" target="yqw1WrJNjAtdvmXGeGCV-16" edge="1">
          <mxGeometry relative="1" as="geometry" />
        </mxCell>
        <mxCell id="yqw1WrJNjAtdvmXGeGCV-11" value="Produce a list to order parts" style="shape=ext;rounded=1;html=1;whiteSpace=wrap;" parent="yqw1WrJNjAtdvmXGeGCV-3" vertex="1">
          <mxGeometry x="480" y="135" width="100" height="50" as="geometry" />
        </mxCell>
        <mxCell id="yqw1WrJNjAtdvmXGeGCV-14" style="edgeStyle=orthogonalEdgeStyle;rounded=0;orthogonalLoop=1;jettySize=auto;html=1;entryX=0;entryY=0.5;entryDx=0;entryDy=0;exitX=0.5;exitY=1;exitDx=0;exitDy=0;" parent="yqw1WrJNjAtdvmXGeGCV-3" source="yqw1WrJNjAtdvmXGeGCV-8" edge="1">
          <mxGeometry relative="1" as="geometry">
            <mxPoint x="430" y="120" as="sourcePoint" />
            <mxPoint x="480" y="165" as="targetPoint" />
            <Array as="points">
              <mxPoint x="430" y="165" />
            </Array>
          </mxGeometry>
        </mxCell>
        <mxCell id="yqw1WrJNjAtdvmXGeGCV-15" value="Yes" style="edgeLabel;html=1;align=center;verticalAlign=middle;resizable=0;points=[];" parent="yqw1WrJNjAtdvmXGeGCV-14" vertex="1" connectable="0">
          <mxGeometry x="-0.1158" y="11" relative="1" as="geometry">
            <mxPoint y="-7" as="offset" />
          </mxGeometry>
        </mxCell>
        <mxCell id="yqw1WrJNjAtdvmXGeGCV-59" style="edgeStyle=orthogonalEdgeStyle;rounded=0;orthogonalLoop=1;jettySize=auto;html=1;" parent="yqw1WrJNjAtdvmXGeGCV-3" source="yqw1WrJNjAtdvmXGeGCV-18" target="yqw1WrJNjAtdvmXGeGCV-24" edge="1">
          <mxGeometry relative="1" as="geometry">
            <Array as="points">
              <mxPoint x="870" y="160" />
            </Array>
          </mxGeometry>
        </mxCell>
        <mxCell id="yqw1WrJNjAtdvmXGeGCV-18" value="Produce work order" style="shape=ext;rounded=1;html=1;whiteSpace=wrap;" parent="yqw1WrJNjAtdvmXGeGCV-3" vertex="1">
          <mxGeometry x="670" y="135" width="100" height="50" as="geometry" />
        </mxCell>
        <mxCell id="yqw1WrJNjAtdvmXGeGCV-19" style="edgeStyle=orthogonalEdgeStyle;rounded=0;orthogonalLoop=1;jettySize=auto;html=1;entryX=0.5;entryY=1;entryDx=0;entryDy=0;" parent="yqw1WrJNjAtdvmXGeGCV-3" source="yqw1WrJNjAtdvmXGeGCV-16" target="yqw1WrJNjAtdvmXGeGCV-18" edge="1">
          <mxGeometry relative="1" as="geometry" />
        </mxCell>
        <mxCell id="yqw1WrJNjAtdvmXGeGCV-60" style="edgeStyle=orthogonalEdgeStyle;rounded=0;orthogonalLoop=1;jettySize=auto;html=1;" parent="yqw1WrJNjAtdvmXGeGCV-3" source="yqw1WrJNjAtdvmXGeGCV-27" target="yqw1WrJNjAtdvmXGeGCV-58" edge="1">
          <mxGeometry relative="1" as="geometry" />
        </mxCell>
        <mxCell id="yqw1WrJNjAtdvmXGeGCV-27" value="Receive parts" style="shape=ext;rounded=1;html=1;whiteSpace=wrap;" parent="yqw1WrJNjAtdvmXGeGCV-3" vertex="1">
          <mxGeometry x="920" y="135" width="100" height="50" as="geometry" />
        </mxCell>
        <mxCell id="yqw1WrJNjAtdvmXGeGCV-28" style="edgeStyle=orthogonalEdgeStyle;rounded=0;orthogonalLoop=1;jettySize=auto;html=1;entryX=0.5;entryY=1;entryDx=0;entryDy=0;" parent="yqw1WrJNjAtdvmXGeGCV-3" source="yqw1WrJNjAtdvmXGeGCV-24" target="yqw1WrJNjAtdvmXGeGCV-27" edge="1">
          <mxGeometry relative="1" as="geometry">
            <Array as="points">
              <mxPoint x="970" y="320" />
            </Array>
          </mxGeometry>
        </mxCell>
        <mxCell id="yqw1WrJNjAtdvmXGeGCV-55" style="edgeStyle=orthogonalEdgeStyle;rounded=0;orthogonalLoop=1;jettySize=auto;html=1;entryX=0;entryY=0.5;entryDx=0;entryDy=0;" parent="yqw1WrJNjAtdvmXGeGCV-3" source="yqw1WrJNjAtdvmXGeGCV-29" target="yqw1WrJNjAtdvmXGeGCV-54" edge="1">
          <mxGeometry relative="1" as="geometry" />
        </mxCell>
        <mxCell id="yqw1WrJNjAtdvmXGeGCV-29" value="&#xa;&#xa;&lt;span style=&quot;color: rgb(0, 0, 0); font-family: helvetica; font-size: 12px; font-style: normal; font-weight: 400; letter-spacing: normal; text-align: center; text-indent: 0px; text-transform: none; word-spacing: 0px; background-color: rgb(248, 249, 250); display: inline; float: none;&quot;&gt;Assemble products&lt;/span&gt;&#xa;&#xa;" style="shape=ext;rounded=1;html=1;whiteSpace=wrap;" parent="yqw1WrJNjAtdvmXGeGCV-3" vertex="1">
          <mxGeometry x="1180" y="135" width="100" height="50" as="geometry" />
        </mxCell>
        <mxCell id="yqw1WrJNjAtdvmXGeGCV-57" style="edgeStyle=orthogonalEdgeStyle;rounded=0;orthogonalLoop=1;jettySize=auto;html=1;entryX=0;entryY=0.5;entryDx=0;entryDy=0;" parent="yqw1WrJNjAtdvmXGeGCV-3" source="yqw1WrJNjAtdvmXGeGCV-54" target="yqw1WrJNjAtdvmXGeGCV-56" edge="1">
          <mxGeometry relative="1" as="geometry" />
        </mxCell>
        <mxCell id="yqw1WrJNjAtdvmXGeGCV-54" value="deliver to the warehouse" style="shape=ext;rounded=1;html=1;whiteSpace=wrap;" parent="yqw1WrJNjAtdvmXGeGCV-3" vertex="1">
          <mxGeometry x="1310" y="135" width="100" height="50" as="geometry" />
        </mxCell>
        <mxCell id="yqw1WrJNjAtdvmXGeGCV-56" value="" style="shape=mxgraph.bpmn.shape;html=1;verticalLabelPosition=bottom;labelBackgroundColor=#ffffff;verticalAlign=top;align=center;perimeter=ellipsePerimeter;outlineConnect=0;outline=end;symbol=general;" parent="yqw1WrJNjAtdvmXGeGCV-3" vertex="1">
          <mxGeometry x="1450" y="140" width="40" height="40" as="geometry" />
        </mxCell>
        <mxCell id="yqw1WrJNjAtdvmXGeGCV-61" style="edgeStyle=orthogonalEdgeStyle;rounded=0;orthogonalLoop=1;jettySize=auto;html=1;entryX=0;entryY=0.5;entryDx=0;entryDy=0;" parent="yqw1WrJNjAtdvmXGeGCV-3" source="yqw1WrJNjAtdvmXGeGCV-58" target="yqw1WrJNjAtdvmXGeGCV-29" edge="1">
          <mxGeometry relative="1" as="geometry" />
        </mxCell>
        <mxCell id="yqw1WrJNjAtdvmXGeGCV-58" value="Produce a product delivery schedule" style="shape=ext;rounded=1;html=1;whiteSpace=wrap;" parent="yqw1WrJNjAtdvmXGeGCV-3" vertex="1">
          <mxGeometry x="1050" y="135" width="100" height="50" as="geometry" />
        </mxCell>
        <mxCell id="yqw1WrJNjAtdvmXGeGCV-5" style="edgeStyle=orthogonalEdgeStyle;rounded=0;orthogonalLoop=1;jettySize=auto;html=1;" parent="WIyWlLk6GJQsqaUBKTNV-1" source="yqw1WrJNjAtdvmXGeGCV-0" edge="1">
          <mxGeometry relative="1" as="geometry">
            <mxPoint x="150" y="240" as="targetPoint" />
          </mxGeometry>
        </mxCell>
      </root>
    </mxGraphModel>
  </diagram>
</mxfile>
